<svg width="52" height="60" viewBox="0 0 52 60" fill="none" xmlns="http://www.w3.org/2000/svg">
<path d="M44.516 24.3322C44.0918 25.2854 43.4555 26.0268 42.8191 26.5564C48.3339 33.7589 50.3489 40.9613 47.2734 44.0329C43.5615 47.7401 33.4864 43.8211 24.79 35.1358C16.0936 26.5564 12.1696 16.4942 15.8815 12.7871C18.6389 10.0332 24.5779 11.4101 30.9411 15.5409C31.2593 14.6936 31.6835 13.7403 32.1077 12.893C19.6995 4.41953 13.7605 10.4569 13.7605 10.4569L7.39724 16.812C-2.46575 26.6624 -2.46575 42.656 7.39724 52.6123C17.2602 62.4627 33.2743 62.4627 43.2433 52.6123L49.6066 46.2572C49.5005 46.2572 56.7122 39.0548 44.516 24.3322ZM8.88199 35.1358C8.13961 35.8772 6.76092 35.8772 6.01854 35.1358C5.27617 34.3944 5.27617 33.0174 6.01854 32.276C6.76092 31.5346 8.13961 31.5346 8.88199 32.276C9.73042 33.1234 9.73042 34.3944 8.88199 35.1358ZM11.2152 29.0985C10.4728 29.8399 9.0941 29.8399 8.35172 29.0985C7.60935 28.357 7.60935 26.9801 8.35172 26.2387C9.0941 25.4973 10.4728 25.4973 11.2152 26.2387C12.0636 27.086 12.0636 28.357 11.2152 29.0985ZM15.9876 33.8648C15.2452 34.6062 13.8665 34.6062 13.1241 33.8648C12.3818 33.1234 12.3818 31.7464 13.1241 31.005C13.8665 30.2636 15.2452 30.2636 15.9876 31.005C16.73 31.7464 16.73 33.1234 15.9876 33.8648Z" fill="#F2DDC6"/>
<path d="M39.0698 26.3988C38.2241 26.1697 37.2727 25.8261 36.5328 25.1388C35.37 24.108 34.3129 22.5044 34.3129 19.7555V19.641C34.3129 18.7247 33.5729 18.0374 32.833 18.152C32.7273 18.152 32.3044 18.2665 32.1987 18.8392C32.093 19.1828 32.093 19.5264 32.093 19.87C32.093 22.619 33.0444 24.3371 34.3129 25.2534C35.6871 26.2842 37.4841 26.7424 39.0698 26.3988Z" fill="#F2DDC6"/>
<path d="M32.573 26.3439C31.0193 25.0359 29.7764 22.9649 29.7764 19.4768C29.7764 18.8228 29.88 18.2777 29.9835 17.5147C25.219 14.1356 20.8688 12.9366 19.0044 14.8987C16.415 17.6237 19.833 25.6899 26.6691 32.8841C33.5052 40.0783 41.1698 43.6754 43.7592 40.9503C45.8308 38.7703 44.1736 33.3201 40.0305 27.543C37.5446 28.524 34.6445 28.088 32.573 26.3439Z" fill="#F2DDC6"/>
<path d="M46.0765 14.2335C44.9213 11.2594 43.2408 8.2852 41.8755 6.16079C40.5101 3.93016 39.3549 2.44307 39.3549 2.44307L37.6744 0L35.994 2.33685C35.994 2.33685 33.9985 4.99236 32.003 8.49764C31.0578 10.1972 30.0075 12.2154 29.2723 14.2335C28.5371 16.2517 27.907 18.1637 27.907 20.1819C27.907 22.2001 28.3271 23.8996 28.9572 25.2805C29.5874 26.6613 30.5326 27.7235 31.5829 28.5733C33.3684 29.9542 35.4689 30.6977 37.6744 30.6977C39.775 30.6977 41.9805 29.9542 43.766 28.5733C44.7112 27.8298 45.6564 26.6613 46.3916 25.2805C47.0218 23.8996 47.4419 22.2001 47.4419 20.1819C47.3369 18.1637 46.8117 16.1455 46.0765 14.2335ZM42.4006 26.8738C39.6699 29.1044 35.5739 29.1044 32.8432 26.8738C31.2678 25.5991 30.0075 23.5809 30.0075 20.1819C30.0075 14.0211 37.6744 3.6115 37.6744 3.6115C37.6744 3.6115 45.3414 14.0211 45.3414 20.1819C45.2363 23.5809 43.976 25.5991 42.4006 26.8738Z" fill="#F2DDC6"/>
</svg>
