<svg width="56" height="60" viewBox="0 0 56 60" fill="none" xmlns="http://www.w3.org/2000/svg">
<path d="M34.973 0.0462544C29.1109 -0.486668 24.7143 3.64348 24.9807 9.43902V9.90532H25.447C31.3092 10.2384 35.4393 5.9084 34.973 0.0462544Z" fill="#F2DDC6"/>
<path d="M20.7841 10.1717C21.317 4.30955 17.1868 -0.0870582 11.3247 0.179403H10.7918V0.645711C10.5253 6.50786 14.9219 10.7046 20.7841 10.1717Z" fill="#F2DDC6"/>
<path d="M13.856 24.9604C10.8583 19.8976 4.92954 18.8318 0.399692 22.429L0 22.7621L0.266461 23.1618C3.464 28.0247 9.45938 28.8241 13.856 24.9604Z" fill="#F2DDC6"/>
<path d="M15.9878 16.7666C14.6555 11.0376 9.32626 8.17319 3.93042 10.2383L3.46411 10.4381L3.59734 10.9044C5.1295 16.5001 10.592 19.0981 15.9878 16.7666Z" fill="#F2DDC6"/>
<path d="M14.5223 32.6877C9.99241 28.8907 3.99703 29.8233 0.932721 34.8194L0.66626 35.2191L1.06595 35.5522C5.72903 39.0828 11.6578 37.8171 14.5223 32.6877Z" fill="#F2DDC6"/>
<path d="M17.0537 40.0819C12.1908 37.7504 7.12799 40.0153 5.52923 45.0781L5.396 45.5444L5.79569 45.7442C10.7252 47.7427 15.6548 45.2779 17.0537 40.0819Z" fill="#F2DDC6"/>
<path d="M21.1168 45.6778C16.4537 45.0782 12.9231 48.2758 12.9897 52.9389V53.3385H13.3894C17.9858 53.6716 21.3832 50.2742 21.1168 45.6778Z" fill="#F2DDC6"/>
<path d="M26.9791 50.4741C22.6491 51.1402 20.1843 54.9373 21.45 59.0674L21.5832 59.4005L21.9163 59.3339C26.1797 58.5345 28.378 54.6042 26.9791 50.4741Z" fill="#F2DDC6"/>
<path d="M34.1738 52.6722C31.3759 54.0712 30.5099 57.2687 32.3086 59.8001L32.4418 59.9999L32.7083 59.8667C35.4395 58.4012 36.039 55.2036 34.1738 52.6722Z" fill="#F2DDC6"/>
<path d="M25.3141 14.7016C24.7812 20.5637 28.9113 24.9603 34.7068 24.6939H35.1731V24.2276C35.5062 18.2988 31.1762 14.1686 25.3141 14.7016Z" fill="#F2DDC6"/>
<path d="M22.6491 10.7046C22.0496 11.3041 21.45 11.9703 20.9171 12.6364C17.5864 16.7 15.5879 21.9626 15.5879 27.6915C15.5879 40.8147 26.2463 51.4732 39.3696 51.4732C45.5648 51.4732 51.2271 49.075 55.4905 45.2113L54.1582 43.7458C50.2945 47.343 45.0985 49.4747 39.3696 49.4747C33.3742 49.4747 27.9117 47.01 23.9148 43.0796C19.9845 39.1493 17.5197 33.6869 17.5197 27.6249C17.5197 22.4289 19.3183 17.6326 22.3827 13.8355C22.9156 13.236 23.4485 12.6364 23.9814 12.0369L22.6491 10.7046Z" fill="#F2DDC6"/>
</svg>
