<svg width="60" height="75" viewBox="0 0 60 75" fill="none" xmlns="http://www.w3.org/2000/svg">
<path d="M53.3492 59.0689C48.5578 65.8735 41.8355 77.9233 19.8093 72.749C5.36353 69.4176 0 58.7854 0 46.0976C0 26.2509 24.3862 -5.92919 45.9118 0.946287C68.1526 8.10529 58.6412 51.5555 53.3492 59.0689Z" fill="#F2DDC6"/>
<path d="M45.6974 40.7816C45.5543 40.3563 45.1252 40.0728 44.6962 40.0019L42.6938 39.6475C42.4792 39.5766 42.2647 39.6475 42.1217 39.6475L41.049 39.931C40.6914 40.0019 40.4053 40.2854 40.2623 40.5689L38.832 43.2624C38.689 43.5459 38.3314 43.7586 38.0454 43.6877C36.7581 43.6168 33.7546 43.475 33.54 43.475C33.3255 43.475 28.6771 44.6091 27.3183 44.3965C25.8881 44.1839 22.7415 43.6877 22.4554 43.4042C21.4542 42.4827 19.0943 36.6705 17.807 35.6072C17.1634 35.1111 14.7319 33.8352 13.7307 33.6934C13.5162 33.6934 13.2301 33.6226 13.0156 33.7643C12.515 34.0478 11.5853 34.6858 11.4423 34.8275C11.1562 35.2528 11.0132 36.3869 11.0132 36.6705C11.0132 36.8831 11.0132 37.521 11.0132 37.521L10.2266 38.5134L11.7999 38.159C11.7999 38.159 11.5853 38.6551 11.7999 39.2222C12.0144 39.8601 12.4435 40.2145 12.4435 40.2145L13.8738 40.7107L13.2301 41.9157C13.2301 41.9157 12.5865 43.2624 12.4435 44.3256C12.2289 45.3888 12.7295 47.8697 12.7295 47.8697C12.7295 47.8697 13.8022 53.6111 15.018 54.7452C16.1622 55.8084 19.5233 57.0842 20.7391 57.4387C21.8833 57.7222 23.4566 58.5019 23.6711 58.5728C23.8142 58.6436 25.0299 60.203 25.316 60.6992C25.3875 60.7701 25.3875 60.841 25.459 60.9118L25.6735 61.408C25.8166 61.7624 25.8881 62.1168 25.8881 62.4712L25.316 66.6532L24.3148 67.2203L20.3815 69.4176H20.7391L24.5293 67.9291L23.4566 69.4176H23.8142L26.2456 67.5038L27.5329 68.2835H27.8189L26.6747 66.7241L27.3183 61.1954C27.3899 60.7701 27.7474 60.4865 28.1765 60.5574L31.1801 60.9827C31.6092 61.0536 32.0382 61.2662 32.3958 61.5498C32.6819 61.8333 32.8964 62.1168 33.0394 62.4712L34.1837 65.59C34.2552 65.6609 34.2552 65.8026 34.2552 65.9444C34.2552 66.4406 33.8261 66.795 33.397 66.795L30.608 66.7241L30.894 67.0785L33.6831 67.4329L31.3231 69.4176H31.7522L35.0418 67.0785C35.4709 66.795 35.9715 66.5114 36.4721 66.4406L37.3303 66.2279L37.1872 65.8735L35.9 65.7318C35.3994 65.6609 34.9703 65.3065 34.8273 64.8103L34.4697 63.3218C34.2552 62.613 34.0406 61.9042 33.6831 61.2662L33.1109 60.1321C33.1109 60.1321 33.8976 58.8563 34.0406 58.6436C34.3267 58.3601 35.6854 57.4387 36.3291 57.0134C36.4721 56.9425 36.6151 56.8007 36.6866 56.5881L38.0454 53.7528L38.4745 53.044C38.7605 52.6187 39.1181 52.3352 39.6187 52.1226L39.7617 52.0517C40.0478 51.9808 40.2623 51.7682 40.4053 51.4846L40.8344 50.7049C41.049 50.3505 41.2635 49.9961 41.5496 49.7126L42.1932 49.0747C42.5508 48.7911 42.9083 48.5076 43.3374 48.295L45.9119 47.0191C46.198 46.8774 46.4125 46.7356 46.5555 46.4521L47.2707 45.4597C47.4137 45.2471 47.4137 45.0344 47.3422 44.8218L45.6974 40.7816Z" fill="#D6163A"/>
<path d="M23.5282 21.9271C24.3148 22.9195 25.3875 23.4865 26.7463 23.4865C26.9608 23.4865 27.1754 23.4865 27.3899 23.4865C28.1051 23.4156 28.6772 23.203 29.0347 23.0612L28.6772 21.5018C28.3911 21.5727 28.0335 21.7145 27.676 21.7145C27.5329 21.7145 27.4614 21.7145 27.3184 21.7145C26.5318 21.7145 25.8166 21.431 25.316 20.7221C24.7439 20.0133 24.3863 19.021 24.2433 17.5325C24.1718 17.1072 24.1718 16.6819 24.1718 16.3275C24.1718 15.1225 24.4579 14.2011 24.8869 13.5631C25.316 12.9252 25.9596 12.5708 26.6748 12.4999C26.8178 12.4999 26.9608 12.4999 27.1039 12.4999C27.3184 12.4999 27.5329 12.4999 27.676 12.5708L27.819 10.9405C27.676 10.8697 27.3899 10.8697 27.0323 10.8697C26.8178 10.8697 26.6033 10.8697 26.3887 10.9405C25.316 11.0823 24.2433 11.5785 23.4567 12.4999C22.67 13.4214 22.0979 14.7681 22.0979 16.6819C22.0979 17.1072 22.0979 17.5325 22.1694 18.0287C22.2409 19.5172 22.7415 20.9348 23.5282 21.9271Z" fill="#D6163A"/>
<path d="M32.1098 19.9425V19.7298L34.8273 19.3754L35.757 22.2107L37.6879 21.998L33.8261 10.0191L31.2516 10.3026L30.0359 22.9195L31.9668 22.7068L32.1098 19.9425ZM32.2528 15.2643C32.3243 14.4846 32.3243 13.2088 32.3958 12.2873V12.0747H32.6104H32.8964L32.9679 12.2873C33.1825 13.1379 33.5401 14.4137 33.7546 15.1226L34.4697 17.7452L34.5413 18.0287L32.1098 18.3122L32.2528 15.2643Z" fill="#D6163A"/>
<path d="M38.3313 18.8084C38.6889 19.6589 39.1895 20.2969 39.7616 20.7222C40.4768 21.2892 41.3349 21.5727 42.4076 21.5727C42.6222 21.5727 42.9082 21.5727 43.1943 21.5019C43.9809 21.431 45.0536 21.0766 45.5542 20.8639L44.7676 14.4846L41.8355 14.839L42.0501 16.3984L43.1943 16.2566L43.6234 19.7298L43.4803 19.8007C43.3373 19.8716 43.1228 19.9425 42.9082 19.9425C42.8367 19.9425 42.7652 19.9425 42.6937 19.9425C42.0501 19.9425 41.4064 19.6589 40.8343 18.9501C40.3337 18.3122 39.9046 17.249 39.7616 15.7605C39.6901 15.3352 39.6901 14.9099 39.6901 14.5555C39.6901 13.2796 39.9762 12.3582 40.4768 11.7202C40.9774 11.0823 41.6925 10.7279 42.5507 10.657C42.7652 10.657 42.9797 10.5861 43.1228 10.5861C43.4088 10.5861 43.6234 10.5861 43.8379 10.657L43.9809 8.95588C43.6949 8.885 43.3373 8.81412 42.9082 8.81412C42.6937 8.81412 42.4076 8.81412 42.1216 8.885C40.9058 9.02676 39.7616 9.52293 38.975 10.5153C38.1168 11.4367 37.6162 12.8543 37.6162 14.6973C37.6162 15.0517 37.6162 15.477 37.6877 15.8314C37.6877 17.0363 37.9738 17.9578 38.3313 18.8084Z" fill="#D6163A"/>
<path d="M52.9203 20.2969L52.7057 18.5957L49.4161 19.021L48.9155 15.0517L51.8476 14.6973L51.633 13.1379L48.7725 13.4923L48.3434 10.09L51.4185 9.66469L51.2039 8.03442L46.1265 8.60147L47.5567 20.9348L52.9203 20.2969Z" fill="#D6163A"/>
<path d="M28.8917 26.2509L23.7427 26.8179L25.2445 39.1513L27.2468 38.8677L26.6032 33.6225L29.5353 33.2681L29.3207 31.7087L26.3887 32.0631L25.9596 28.3064L29.0347 27.8812L28.8917 26.2509Z" fill="#D6163A"/>
<path d="M36.9012 36.8122C37.0443 37.2375 37.1873 37.521 37.2588 37.7336L39.3327 37.521C39.1897 37.2375 39.0466 36.8831 38.9036 36.4578C38.6891 35.8198 38.4745 35.111 38.26 34.4022C38.0455 33.7643 37.8309 33.2681 37.5449 32.9137C37.2588 32.5593 36.9727 32.3467 36.5437 32.2049L36.4006 32.134V31.9923V31.7796L36.5437 31.7087C37.5449 31.0708 38.0455 30.0785 38.0455 29.0153C38.0455 28.8735 38.0455 28.7317 38.0455 28.59C37.9024 27.5267 37.6164 26.8179 36.8297 26.2509C36.2576 25.8256 35.471 25.6838 34.6128 25.6838C34.2552 25.6838 33.8261 25.6838 33.4686 25.7547C32.6104 25.8256 31.7522 26.0382 31.0371 26.2509L32.4674 38.3716L34.4698 38.1589L33.8261 33.0555H34.1122L34.4698 32.9846C34.5413 32.9846 34.6128 32.9846 34.6843 32.9846C35.1134 32.9846 35.471 33.1264 35.757 33.4808C36.0431 33.8352 36.2576 34.3313 36.4006 35.0402C36.5437 35.6072 36.6867 36.2451 36.9012 36.8122ZM35.5425 30.7164C35.2564 31.0708 34.8273 31.3543 34.2552 31.4252L33.8261 31.4961H33.5401L33.0395 27.2432L33.1825 27.1723C33.3971 27.0306 33.6116 27.0306 33.8977 27.0306C33.9692 27.0306 34.0407 27.0306 34.1122 27.0306C34.6843 27.0306 35.1134 27.2432 35.3994 27.5976C35.6855 27.952 35.8285 28.4482 35.9 28.9444C35.9 29.0861 35.9 29.2279 35.9 29.2988C35.9716 29.8658 35.8285 30.362 35.5425 30.7164Z" fill="#D6163A"/>
<path d="M42.2646 31.4252L45.1967 31.0708L44.9821 29.5114L42.1216 29.8658L41.6925 26.4635L44.7676 26.0383L44.5531 24.408L39.4756 24.975L40.9059 37.3084L46.2694 36.6704L46.0548 34.9693L42.7652 35.3946L42.2646 31.4252Z" fill="#D6163A"/>
<path d="M53.2062 34.1187L49.9166 34.544L49.416 30.5746L52.3481 30.2202L52.205 28.6609L49.273 29.0153L48.8439 25.613L51.919 25.2586L51.7759 23.5574L46.627 24.1245L48.1287 36.4578L53.4208 35.8199L53.2062 34.1187Z" fill="#D6163A"/>
</svg>
