<svg width="168" height="45" viewBox="0 0 168 45" fill="none" xmlns="http://www.w3.org/2000/svg">
<path fill-rule="evenodd" clip-rule="evenodd" d="M35.628 0.0418908H30.725C30.2408 0.0418908 29.8484 0.434371 29.8484 0.918495V0.919491V21.4888C29.8484 22.4052 28.6211 22.7081 28.1948 21.8972L19.0362 4.4538C17.5934 1.70584 14.7416 -0.0110041 11.6379 5.30903e-05L0.873617 0.0389025C0.390688 0.040596 6.79313e-07 0.432578 6.79313e-07 0.915507V41.0371C-0.000595642 41.5212 0.391485 41.9141 0.87561 41.9147H0.876606H5.77961C9.5251 41.9147 12.5613 38.8784 12.5613 35.1329V20.0912C12.5613 19.1718 13.7946 18.8719 14.2169 19.6878L23.1264 36.8981C24.7198 39.9779 27.8979 41.9118 31.3655 41.9117H41.5331C42.0172 41.9117 42.4097 41.5192 42.4097 41.0351V41.0341V6.82362C42.4097 3.07813 39.3735 0.0418908 35.628 0.0418908ZM60.5226 11.5871C59.1689 11.5871 57.8164 11.672 56.4733 11.8412C52.0565 12.3952 48.7418 16.1488 48.7383 20.6002C48.7385 20.9066 48.987 21.155 49.2934 21.1548C49.3572 21.1548 49.4204 21.1437 49.4804 21.1222C52.7278 19.9647 55.3865 19.6021 57.8908 19.6021C61.713 19.6021 64.7642 20.9877 65.576 24.5659C65.641 24.8574 65.4572 25.1465 65.1656 25.2114C65.0764 25.2313 64.9834 25.2282 64.8957 25.2024C63.013 24.6426 60.5934 24.1485 57.9506 24.1485C50.8322 24.1485 46.4651 27.5583 46.4651 33.301C46.4651 39.1035 50.8322 42.5123 56.8728 42.5123C60.0744 42.5123 62.8745 41.577 64.8887 39.7819C65.1125 39.585 65.4537 39.6068 65.6507 39.8306C65.7376 39.9294 65.7854 40.0566 65.7852 40.1883V41.3727C65.7852 41.672 66.0279 41.9146 66.3271 41.9146H73.5163C75.8869 41.9146 77.8087 39.9929 77.8087 37.6223V26.7205C77.8097 16.2531 71.0498 11.5871 60.5226 11.5871ZM65.7862 31.7451C65.7869 33.4312 64.6803 34.9178 63.0648 35.4009C60.2367 36.2426 57.8908 35.2256 57.8908 32.8816C57.8908 31.0886 59.0862 30.0108 61.8385 30.0108C63.0387 29.9951 64.2346 30.1546 65.3888 30.4839C65.6233 30.5501 65.7857 30.7633 65.7872 31.0069L65.7862 31.7451ZM136.503 17.0637C139.415 14.2037 143.895 12.5103 150.118 12.5103C162.445 12.5103 167.998 19.1615 167.998 28.3141C167.998 37.4666 162.445 44.1179 150.118 44.1179C143.018 44.1179 138.187 41.9104 135.365 38.2894C132.572 40.8754 128.43 42.782 122.444 42.782C117.986 42.782 114.508 41.7391 111.433 39.3005C110.265 38.4907 109.415 36.6687 111.659 36.6687H132.014C132.292 36.6691 132.562 36.5785 132.783 36.4107C133.119 36.1563 133.44 35.8842 133.747 35.5959C133.67 35.4275 133.596 35.2592 133.527 35.0868C133.435 34.8637 133.351 34.6366 133.271 34.4075H114.598C114.453 34.4154 114.301 34.4214 114.136 34.4214C108.306 34.6807 106.405 36.6082 104.542 38.497C102.626 40.4393 100.751 42.3407 94.6851 42.3447C86.6701 42.3497 81.6456 37.7396 81.6456 28.3489V10.3835V10.3825C81.6462 6.16668 85.0641 2.74951 89.28 2.75011H92.7177C93.2426 2.75011 93.668 3.17556 93.668 3.70043V10.8906C93.668 11.4155 94.0934 11.8414 94.6183 11.8419H101.392C101.917 11.8419 102.342 12.2673 102.342 12.7922V15.4927C102.342 18.101 100.228 20.2154 97.6197 20.2154H94.6193C94.0945 20.2154 93.669 20.6409 93.669 21.1658V27.5162C93.669 30.7227 94.8733 32.1552 98.3768 32.9421C98.4284 32.9534 98.4806 32.9618 98.5332 32.967C101.938 33.2785 103.405 32.0277 104.922 30.7333C106.074 29.7508 107.255 28.7432 109.336 28.3748C109.356 28.3709 111.049 28.2115 111.136 28.2115L111.146 28.2184V28.2115C114.453 28.1915 125.207 28.1975 132.301 28.2035C132.304 27.4078 132.353 26.613 132.446 25.8227C124.266 25.8287 109.38 25.8357 105.966 25.8148C105.091 24.6164 105.856 20.4944 107.572 19.6148H134.015C134.135 19.6149 134.251 19.5702 134.34 19.4897C134.538 19.3104 134.554 19.0042 134.374 18.8059C134.008 18.4069 133.615 18.0328 133.198 17.6862C132.895 17.4344 132.514 17.296 132.12 17.2948H109.791C108.373 17.2948 109.971 15.4728 111.134 14.663C114.21 12.2244 117.681 11.1864 121.881 11.1864C128.691 11.1864 133.485 13.7166 136.503 17.0637ZM144.383 28.3141C144.383 32.2807 146.213 35.0878 150.118 35.0878C154.085 35.0878 155.915 32.2807 155.915 28.3141C155.915 24.3474 154.085 21.5403 150.118 21.5403C146.213 21.5403 144.383 24.3474 144.383 28.3141Z" fill="#03715B"/>
</svg>
