<svg width="146" height="734" viewBox="0 0 146 734" fill="none" xmlns="http://www.w3.org/2000/svg">
<path d="M72.3768 624.546H0V661.385H72.3768V624.546Z" fill="#FFD817"/>
<path d="M0 643.474H35.9822L17.9911 661.385L0 643.474Z" fill="#048E5B"/>
<path d="M35.9822 643.473H0L17.9911 625.784L35.9822 643.473Z" fill="#513B1F"/>
<path d="M36.3794 643.474H72.3774L54.3863 661.385L36.3794 643.474Z" fill="#048E5B"/>
<path d="M72.3774 643.473H36.3794L54.3863 625.784L72.3774 643.473Z" fill="#513B1F"/>
<path d="M72.3768 588.897H0V626.022H72.3768V588.897Z" fill="#FF900E"/>
<path d="M0 608.094H35.9822L17.9911 626.022L0 608.094Z" fill="#FFD817"/>
<path d="M35.9822 608.094H0L17.9911 590.404L35.9822 608.094Z" fill="#03715B"/>
<path d="M36.3794 608.094H72.3774L54.3863 626.022L36.3794 608.094Z" fill="#FFD817"/>
<path d="M72.3774 608.094H36.3794L54.3863 590.404L72.3774 608.094Z" fill="#03715B"/>
<path d="M144.975 661.385H72.582V733.984H144.975V661.385Z" fill="#F3DEC5"/>
<path d="M107.911 697.447L73.0397 662.258C71.358 670.984 74.3882 681.042 81.8448 688.562C89.2856 696.082 99.2648 699.144 107.911 697.447Z" fill="#048E5B"/>
<path d="M107.929 697.431L73.0574 662.242C81.7039 660.544 91.6831 663.606 99.1238 671.126C106.565 678.647 109.611 688.705 107.929 697.431Z" fill="#03715B"/>
<path d="M108.998 697.431L143.87 662.242C135.223 660.544 125.244 663.606 117.804 671.126C110.363 678.647 107.317 688.705 108.998 697.431Z" fill="#048E5B"/>
<path d="M109.01 697.447L143.881 662.258C145.563 670.984 142.533 681.042 135.076 688.562C127.635 696.082 117.656 699.144 109.01 697.447Z" fill="#03715B"/>
<path d="M108.386 661.782V697.431C103.167 693.877 99.6445 687.229 99.6445 679.598C99.6445 671.983 103.151 665.336 108.386 661.782Z" fill="#048E5B"/>
<path d="M108.408 661.782V697.431C113.627 693.877 117.149 687.229 117.149 679.598C117.134 671.983 113.627 665.336 108.408 661.782Z" fill="#03715B"/>
<path d="M144.34 734C144.34 714.073 128.284 697.907 108.469 697.907C88.6532 697.907 72.5977 714.073 72.5977 734H144.34Z" fill="#FF900E"/>
<path d="M144.994 588.897H72.3789V661.385H144.994V588.897Z" fill="#FF900E"/>
<path d="M120.776 612.98H96.5659V637.191H120.776V612.98Z" fill="white"/>
<path d="M144.971 588.897H96.5659V612.981H144.971V588.897Z" fill="#03715B"/>
<path d="M72.5831 661.385H0V733.984H72.5831V661.385Z" fill="#FF900E"/>
<path d="M36.3018 685.611V734L72.5854 709.33V661.385L36.3018 685.611Z" fill="#03715B"/>
<path d="M0 661.385V709.806L36.2995 734V685.611L0 661.385Z" fill="#FFD817"/>
<path d="M29.1619 718.119L6.47472 702.984L5.9353 703.793L28.6225 718.913" fill="white"/>
<path d="M29.1619 712.804L6.47472 697.685L5.9353 698.478L28.6225 713.613" fill="white"/>
<path d="M29.1619 707.505L6.47472 692.37L5.9353 693.179L28.6225 708.299" fill="white"/>
<path d="M29.1619 702.191L6.47472 687.071L5.9353 687.865L28.6225 702.984" fill="white"/>
<path d="M29.1619 696.876L6.47472 681.756L5.9353 682.55L28.6225 697.685" fill="white"/>
<path d="M29.1619 691.577L6.47472 676.441L5.9353 677.25L28.6225 692.37" fill="white"/>
<path d="M42.4735 718.913L65.1607 703.793L64.6371 702.984L41.95 718.119" fill="white"/>
<path d="M42.4735 713.613L65.1607 698.478L64.6371 697.685L41.95 712.804" fill="white"/>
<path d="M42.4735 708.299L65.1607 693.179L64.6371 692.37L41.95 707.505" fill="white"/>
<path d="M42.4735 702.984L65.1607 687.865L64.6371 687.071L41.95 702.191" fill="white"/>
<path d="M42.4735 697.685L65.1607 682.55L64.6371 681.756L41.95 696.876" fill="white"/>
<path d="M42.4735 692.37L65.1607 677.25L64.6371 676.441L41.95 691.577" fill="white"/>
<rect y="516" width="73" height="37" fill="#F3DEC5"/>
<path d="M145.062 442.914V371.413H72.4921L72.4921 442.914H145.062Z" fill="#FF900E"/>
<path d="M115.438 442.906H102.026C91.7017 442.906 83.3362 434.563 83.3362 424.266V392.089H134.128V424.266C134.128 434.563 125.763 442.906 115.438 442.906Z" fill="#513B1F"/>
<path d="M108.762 402.225C124.125 402.225 136.578 397.687 136.578 392.089C136.578 386.492 124.125 381.954 108.762 381.954C93.4001 381.954 80.9465 386.492 80.9465 392.089C80.9465 397.687 93.4001 402.225 108.762 402.225Z" fill="#513B1F"/>
<path d="M108.764 399.306C121.454 399.306 131.74 396.075 131.74 392.089C131.74 388.103 121.454 384.872 108.764 384.872C96.0747 384.872 85.7878 388.103 85.7878 392.089C85.7878 396.075 96.0747 399.306 108.764 399.306Z" fill="#03715B"/>
<path d="M129.127 418.268L119.448 420.474C119.448 420.474 121.522 433.828 114.977 437.321C110.598 439.665 121.314 440.355 126.845 433.874C129.588 430.702 129.541 423.968 129.127 418.268Z" fill="#F3DEC5"/>
<path d="M116.655 392.09C118.145 392.09 119.352 391.4 119.352 390.55C119.352 389.699 118.145 389.009 116.655 389.009C115.166 389.009 113.959 389.699 113.959 390.55C113.959 391.4 115.166 392.09 116.655 392.09Z" fill="#F3DEC5"/>
<path d="M122.266 394.388C123.221 394.388 123.995 393.873 123.995 393.238C123.995 392.604 123.221 392.089 122.266 392.089C121.312 392.089 120.538 392.604 120.538 393.238C120.538 393.873 121.312 394.388 122.266 394.388Z" fill="#F3DEC5"/>
<path d="M72.4949 371.413L72.4949 299.911H-6.86646e-05L-6.86646e-05 371.413H72.4949Z" fill="#F3DEC5"/>
<path d="M7.4248 340.59V356.47L21.4259 364.409L35.4498 356.47V340.59L21.4259 332.674L7.4248 340.59Z" fill="#513B1F"/>
<path d="M37 340.59V356.47L51.0011 364.409L65.0021 356.47V340.59L51.0011 332.674L37 340.59Z" fill="#FFD817"/>
<path d="M22.3442 315.243V331.122L36.3453 339.062L50.3692 331.122V315.243L36.3453 307.326L22.3442 315.243Z" fill="#FF900E"/>
<path d="M47.1868 316.703L37 310.931" stroke="white" stroke-width="2" stroke-miterlimit="10"/>
<path d="M33.5088 342.644V354.439" stroke="white" stroke-width="2" stroke-miterlimit="10"/>
<path d="M61.897 342.644V354.439" stroke="white" stroke-width="2" stroke-miterlimit="10"/>
<path d="M145.062 371.413V299.911H72.4924L72.4924 371.413H145.062Z" fill="#513B1F"/>
<path d="M124.991 357.282H93.2114C90.7916 357.282 89.1093 356.528 88.464 355.134C88.1184 354.403 87.8188 352.872 89.5933 350.77L101.531 336.762V323.508C99.6872 323.051 98.3505 321.543 98.3505 319.806V319.555C98.3505 317.43 100.286 315.693 102.66 315.693H115.542C117.916 315.693 119.852 317.43 119.852 319.555V319.806C119.852 321.566 118.515 323.051 116.672 323.508V336.762L128.609 350.77C130.384 352.849 130.084 354.403 129.738 355.134C129.093 356.505 127.411 357.282 124.991 357.282Z" fill="#F3DEC5"/>
<path d="M103.279 332.192V337.425L90.927 351.912C90.0973 352.895 89.7747 353.809 90.0512 354.426C90.3739 355.134 91.5722 355.569 93.2085 355.569H124.988C126.624 355.569 127.823 355.134 128.145 354.426C128.422 353.809 128.099 352.895 127.27 351.912L114.917 337.425V332.214H103.279V332.192Z" fill="#FF900E"/>
<path d="M97.9089 352.986C97.7245 352.986 97.5171 352.918 97.3558 352.804C96.9871 352.507 96.9179 351.958 97.2175 351.593L105.79 340.898C106.09 340.532 106.643 340.464 107.012 340.761C107.381 341.058 107.45 341.606 107.15 341.972L98.5772 352.667C98.4159 352.895 98.1624 352.986 97.9089 352.986Z" fill="#F3DEC5"/>
<path d="M72.4795 442.914L72.4795 371.413H6.86646e-05L6.86646e-05 442.914H72.4795Z" fill="#048E5B"/>
<path d="M51.605 395.71L37.036 381.157C36.5108 380.629 35.643 380.629 35.1178 381.157L20.5489 395.71C11.6888 404.547 11.4604 418.985 20.3662 427.754C29.0893 436.315 43.0645 436.315 51.7648 427.754C60.6706 418.985 60.4422 404.547 51.605 395.71Z" fill="#513B1F"/>
<path d="M29.7651 418.136C30.7699 418.87 30.9525 420.294 30.2218 421.281C29.4682 422.268 28.0753 422.474 27.0705 421.74C26.9107 421.602 26.7508 421.464 26.6138 421.281C21.4074 416.047 21.4074 407.577 26.6138 402.343C27.3674 401.356 28.7604 401.15 29.7651 401.884C30.7699 402.619 30.9525 404.042 30.2218 405.029C30.0848 405.19 29.9478 405.35 29.7651 405.488C26.2485 408.977 26.2485 414.647 29.7651 418.136C29.7423 418.136 29.7423 418.136 29.7651 418.136Z" fill="#F3DEC5"/>
<path d="M36.2714 0H0V36.403H36.2714V0Z" fill="#FFD817"/>
<path d="M72.5887 0H36.3174V36.403H72.5887V0Z" fill="#513B1F"/>
<path d="M108.937 0H72.6655V36.403H108.937V0Z" fill="#FFD817"/>
<path d="M144.99 0H108.742V79.4465H144.99V0Z" fill="#FFD817"/>
<path d="M36.744 0H0V61.571H36.744V0Z" fill="#513B1F"/>
<path d="M72.4948 0H36.7439V79.4465H72.4948V0Z" fill="#FFD817"/>
<path d="M109.239 0H72.4949V61.571H109.239V0Z" fill="#513B1F"/>
<path d="M36.744 61.571H0V79.4465H36.744V61.571Z" fill="#513B1F"/>
<path d="M109.239 61.571H72.4949V79.4465H109.239V61.571Z" fill="#513B1F"/>
<path d="M36.744 79.4465H0L18.3599 61.571L36.744 79.4465Z" fill="#03715B"/>
<path d="M72.4948 79.4465H36.7439L54.6076 61.571L72.4948 79.4465Z" fill="#03715B"/>
<path d="M109.239 79.4465H72.4949L90.8669 61.571L109.239 79.4465Z" fill="#03715B"/>
<path d="M144.99 79.4465H109.239L127.103 61.571L144.99 79.4465Z" fill="#03715B"/>
<path d="M72.9155 254.27L109.292 254.27L109.292 236.129L72.9155 236.129L72.9155 254.27Z" fill="#FFD817"/>
<path d="M36.4973 254.27L72.8743 254.27L72.8743 236.129L36.4973 236.129L36.4973 254.27Z" fill="#513B1F"/>
<path d="M0.0598297 254.27L36.4368 254.27L36.4368 236.129L0.0598297 236.129L0.0598297 254.27Z" fill="#FFD817"/>
<path d="M72.9407 236.141H109.413L91.1768 254.281L72.9407 236.141Z" fill="#048E5B"/>
<path d="M36.4448 236.164H72.798L54.6095 254.281L36.4448 236.164Z" fill="#048E5B"/>
<path d="M0.139404 236.164H36.3497L18.2565 254.281L0.139404 236.164Z" fill="#048E5B"/>
<path d="M144.981 153.232V79.4465L72.4937 79.4465L72.4937 153.232H144.981Z" fill="#FF900E"/>
<path d="M144.989 226.406V153.215H72.5013L72.5013 226.406H144.989Z" fill="#FF900E"/>
<path d="M109.904 217.944H106.036C92.9148 217.944 82.2849 207.298 82.2849 194.156V101.455H133.655V194.156C133.655 207.298 123.025 217.944 109.904 217.944Z" fill="#513B1F"/>
<path d="M107.958 111.697C123.5 111.697 136.099 107.112 136.099 101.455C136.099 95.7986 123.5 91.2131 107.958 91.2131C92.4167 91.2131 79.8176 95.7986 79.8176 101.455C79.8176 107.112 92.4167 111.697 107.958 111.697Z" fill="#513B1F"/>
<path d="M107.958 108.751C120.787 108.751 131.187 105.484 131.187 101.455C131.187 97.4261 120.787 94.1599 107.958 94.1599C95.1288 94.1599 84.7288 97.4261 84.7288 101.455C84.7288 105.484 95.1288 108.751 107.958 108.751Z" fill="#FFD817"/>
<path d="M129.237 192.778L120.767 192.873C120.767 192.873 124.753 204.137 113.648 213.381C113.648 213.381 119.675 212.074 125.109 206.49C127.814 203.733 129.641 197.721 129.237 192.778Z" fill="#F3DEC5"/>
<path d="M115.97 101.455C117.477 101.455 118.698 100.753 118.698 99.8868C118.698 99.0206 117.477 98.3184 115.97 98.3184C114.463 98.3184 113.241 99.0206 113.241 99.8868C113.241 100.753 114.463 101.455 115.97 101.455Z" fill="#F3DEC5"/>
<path d="M121.623 103.784C122.592 103.784 123.378 103.263 123.378 102.619C123.378 101.976 122.592 101.455 121.623 101.455C120.653 101.455 119.867 101.976 119.867 102.619C119.867 103.263 120.653 103.784 121.623 103.784Z" fill="#F3DEC5"/>
<path d="M72.4873 153.24L72.4873 79.4465L9.91821e-05 79.4465L9.91821e-05 153.24H72.4873Z" fill="#FFD817"/>
<path d="M72.4949 226.423L72.4949 153.223H0.00765991L0.00765991 226.423H72.4949Z" fill="#03715B"/>
<path d="M36.2629 194.371C31.2449 194.371 28.9856 203.663 28.9856 206.492C28.9856 210.508 32.2437 213.764 36.2629 213.764C40.282 213.764 43.5401 210.508 43.5401 206.492C43.5401 203.687 41.2808 194.371 36.2629 194.371Z" fill="white"/>
<path d="M55.6944 120.411C55.6944 109.574 46.7999 100.4 36.2883 100.4C25.3962 100.4 16.8823 108.647 16.8823 119.199V128.895H55.7182V120.411H55.6944Z" fill="#FF900E"/>
<path d="M60.55 133.744H12.0112C10.6794 133.744 9.58545 134.837 9.58545 136.168C9.58545 137.499 10.6794 138.592 12.0112 138.592H16.8627V177.402C16.8627 178.281 17.3383 179.065 18.0756 179.517L35.0559 189.214C35.2699 189.332 35.5315 189.356 35.7693 189.404C35.9358 189.427 36.0785 189.523 36.2687 189.523C36.4352 189.523 36.6017 189.427 36.7682 189.404C37.006 189.332 37.2676 189.332 37.4816 189.214L54.4619 179.517C55.2229 179.089 55.6748 178.281 55.6748 177.402V138.592H60.5263C61.858 138.592 62.952 137.499 62.952 136.168C62.952 134.837 61.8818 133.744 60.55 133.744Z" fill="#F3DEC5"/>
<path d="M73.0613 300.028V263.984H36.4701L36.4701 300.028H73.0613Z" fill="#FFD817"/>
<path d="M39.5182 288.397L46.6365 283.897L38.2803 282.85L46.5175 281.064L38.9945 277.231L47.3507 278.35L41.6132 272.208L49.0648 276.089L45.7794 268.351L51.4693 274.565L51.0408 266.185L54.2309 273.946L56.7068 265.923L57.0639 274.303L62.1348 267.613L59.5874 275.612L66.6343 271.041L61.492 277.684L69.7054 275.803L62.5871 280.302L70.9671 281.35L62.73 283.135L70.2291 286.968L61.8729 285.849L67.6342 291.992L60.1588 288.087L63.4442 295.824L57.7781 289.635L58.2066 298.015L54.9927 290.254L52.5406 298.277L52.1835 289.897L47.1126 296.586L49.66 288.587L42.5893 293.158L47.7316 286.492L39.5182 288.397Z" fill="#FF900E"/>
<path d="M72.4949 299.911L72.4949 226.423H-6.86646e-05L-6.86646e-05 299.911H72.4949Z" fill="#FF900E"/>
<path d="M6.28684 276.041L20.7614 266.875L3.7395 264.78L20.4996 261.114L5.21553 253.329L22.2137 255.615L10.5245 243.092L25.7133 251.02L19.0473 235.26L30.5937 247.901L29.7128 230.832L36.2359 246.639L41.2592 230.284L41.9734 247.377L52.3056 233.736L47.0919 250.02L61.495 240.711L51.02 254.258L67.7324 250.425L53.2578 259.59L70.256 261.685L53.5197 265.352L68.7799 273.136L51.8056 270.851L63.471 283.373L48.2822 275.446L54.9719 291.182L43.4256 278.564L44.3065 295.634L37.7834 279.826L32.7601 296.182L32.0459 279.088L21.7137 292.73L26.9036 276.446L12.5242 285.754L22.9993 272.184L6.28684 276.041Z" fill="#FFD817"/>
<path d="M144.99 299.911V226.423H72.495L72.495 299.911H144.99Z" fill="#03715B"/>
<path d="M77.3467 276.041L91.8212 266.875L74.7993 264.78L91.5594 261.114L76.2753 253.329L93.2735 255.615L81.5843 243.092L96.7731 251.02L90.0833 235.26L101.653 247.901L100.773 230.832L107.296 246.639L112.319 230.284L113.033 247.377L123.342 233.736L118.152 250.02L132.555 240.711L122.08 254.258L138.792 250.425L124.318 259.59L141.316 261.685L124.58 265.352L139.84 273.136L122.842 270.851L134.531 283.373L119.342 275.446L126.032 291.182L114.485 278.564L115.366 295.634L108.843 279.826L103.82 296.182L103.106 279.088L92.7735 292.73L97.9634 276.446L83.5841 285.754L94.0591 272.184L77.3467 276.041Z" fill="#FF900E"/>
<path d="M36.624 552.44H0.0231934V588.788H36.624V552.44Z" fill="#FF900E"/>
<path d="M72.4979 552.44H36.6277V588.788H72.4979V552.44Z" fill="#FF900E"/>
<path d="M72.3556 534.415L54.3406 552.463L36.3484 534.415L54.3406 516.368L72.3556 534.415Z" fill="#513B1F"/>
<path d="M54.3373 534.943L36.1853 516.299V534.346C36.1853 544.38 44.3138 552.532 54.3373 552.532C64.3609 552.532 72.4893 544.38 72.4893 534.346V516.299L54.3373 534.943Z" fill="#FFD817"/>
<path d="M36.17 534.415L18.155 552.463L0.162842 534.415L18.155 516.368L36.17 534.415Z" fill="#513B1F"/>
<path d="M18.152 534.943L0 516.299V534.346C0 544.38 8.12845 552.532 18.152 552.532C28.1756 552.532 36.304 544.38 36.304 534.346V516.299L18.152 534.943Z" fill="#FFD817"/>
<path d="M9.37988 552.44V588.65C14.7456 585.045 18.3531 578.271 18.3531 570.556C18.3531 562.818 14.7456 556.068 9.37988 552.44Z" fill="#048E5B"/>
<path d="M27.6589 552.44V588.65C33.0246 585.045 36.6322 578.271 36.6322 570.556C36.6322 562.818 33.0246 556.068 27.6589 552.44Z" fill="#048E5B"/>
<path d="M27.6634 552.44V588.65C22.2978 585.045 18.6902 578.271 18.6902 570.556C18.6902 562.818 22.2978 556.068 27.6634 552.44Z" fill="#03715B"/>
<path d="M45.6042 552.44V588.65C50.9699 585.045 54.5775 578.271 54.5775 570.556C54.5775 562.818 50.9699 556.068 45.6042 552.44Z" fill="#048E5B"/>
<path d="M45.601 552.44V588.65C40.2353 585.045 36.6277 578.271 36.6277 570.556C36.6277 562.818 40.2353 556.068 45.601 552.44Z" fill="#03715B"/>
<path d="M63.8644 552.44V588.65C58.4987 585.045 54.8911 578.271 54.8911 570.556C54.8911 562.818 58.4987 556.068 63.8644 552.44Z" fill="#03715B"/>
<path d="M72.4943 442.914H0.0231934V516.299H72.4943V442.914Z" fill="#03715B"/>
<path d="M52.5133 487.551L43.9282 496.184L63.9069 516.299H72.492V507.665L52.5133 487.551Z" fill="#FF900E"/>
<path d="M30.1167 457.105C39.3411 457.105 46.8303 464.659 46.8303 473.912C46.8303 483.189 39.3183 490.72 30.1167 490.72C20.9151 490.72 13.4032 483.166 13.4032 473.912C13.4032 464.636 20.8923 457.105 30.1167 457.105ZM30.1167 443.649C13.4945 443.649 0.0231934 457.196 0.0231934 473.912C0.0231934 490.628 13.4945 504.175 30.1167 504.175C46.7389 504.175 60.2103 490.628 60.2103 473.912C60.2103 457.196 46.7389 443.649 30.1167 443.649Z" fill="white"/>
<path d="M110.232 442.914H72.4949V479.658H110.232V442.914Z" fill="#FF900E"/>
<path d="M144.99 442.914H110.232V479.658H144.99V442.914Z" fill="#FF900E"/>
<path d="M81.4326 442.914V479.658C86.7723 475.991 90.3703 469.123 90.3703 461.275C90.3474 453.426 86.7723 446.582 81.4326 442.914Z" fill="#048E5B"/>
<path d="M100.301 442.914V479.658C106.234 475.991 110.232 469.123 110.232 461.275C110.207 453.426 106.234 446.582 100.301 442.914Z" fill="#048E5B"/>
<path d="M100.301 442.914V479.658C94.9615 475.991 91.3635 469.123 91.3635 461.275C91.3635 453.426 94.9615 446.582 100.301 442.914Z" fill="#03715B"/>
<path d="M119.17 442.914V479.658C124.509 475.991 128.107 469.123 128.107 461.275C128.107 453.426 124.509 446.582 119.17 442.914Z" fill="#048E5B"/>
<path d="M119.17 442.914V479.658C113.83 475.991 110.232 469.123 110.232 461.275C110.232 453.426 113.83 446.582 119.17 442.914Z" fill="#03715B"/>
<path d="M137.045 442.914V479.658C131.705 475.991 128.107 469.123 128.107 461.275C128.13 453.426 131.728 446.582 137.045 442.914Z" fill="#03715B"/>
<path d="M144.508 552.153V479.604H72.4941L72.4941 552.153H144.508Z" fill="#513B1F"/>
<path d="M81.5012 519.064V535.237L95.5577 543.324L109.637 535.237V519.064L95.5577 510.977L81.5012 519.064Z" stroke="white" stroke-width="2" stroke-miterlimit="10"/>
<path d="M109.633 519.064V535.237L123.713 543.324L137.769 535.237V519.064L123.713 510.977L109.633 519.064Z" stroke="white" stroke-width="2" stroke-miterlimit="10"/>
<path d="M95.5596 494.965V511.138L109.639 519.225L123.719 511.138V494.965L109.639 486.878L95.5596 494.965Z" stroke="white" stroke-width="2" stroke-miterlimit="10"/>
<path d="M119.881 497.537L109.633 491.656" stroke="white" stroke-width="2" stroke-miterlimit="10"/>
<path d="M105.18 521.131V533.17" stroke="white" stroke-width="2" stroke-miterlimit="10"/>
<path d="M133.25 521.131V533.17" stroke="white" stroke-width="2" stroke-miterlimit="10"/>
<path d="M95.5542 497.492C96.9566 497.492 98.0935 496.361 98.0935 494.965C98.0935 493.569 96.9566 492.438 95.5542 492.438C94.1518 492.438 93.0149 493.569 93.0149 494.965C93.0149 496.361 94.1518 497.492 95.5542 497.492Z" fill="#FF900E"/>
<path d="M137.783 521.753C139.186 521.753 140.323 520.621 140.323 519.225C140.323 517.829 139.186 516.698 137.783 516.698C136.381 516.698 135.244 517.829 135.244 519.225C135.244 520.621 136.381 521.753 137.783 521.753Z" fill="#FF900E"/>
<path d="M81.4958 521.753C82.8982 521.753 84.0351 520.621 84.0351 519.225C84.0351 517.829 82.8982 516.698 81.4958 516.698C80.0934 516.698 78.9565 517.829 78.9565 519.225C78.9565 520.621 80.0934 521.753 81.4958 521.753Z" fill="#FF900E"/>
<path d="M95.5542 545.852C96.9566 545.852 98.0935 544.72 98.0935 543.324C98.0935 541.928 96.9566 540.797 95.5542 540.797C94.1518 540.797 93.0149 541.928 93.0149 543.324C93.0149 544.72 94.1518 545.852 95.5542 545.852Z" fill="#FF900E"/>
<path d="M123.709 545.852C125.112 545.852 126.249 544.72 126.249 543.324C126.249 541.928 125.112 540.797 123.709 540.797C122.307 540.797 121.17 541.928 121.17 543.324C121.17 544.72 122.307 545.852 123.709 545.852Z" fill="#FF900E"/>
<path d="M137.783 537.765C139.186 537.765 140.323 536.633 140.323 535.237C140.323 533.842 139.186 532.71 137.783 532.71C136.381 532.71 135.244 533.842 135.244 535.237C135.244 536.633 136.381 537.765 137.783 537.765Z" fill="#FF900E"/>
<path d="M109.628 521.339C111.03 521.339 112.167 520.207 112.167 518.812C112.167 517.416 111.03 516.284 109.628 516.284C108.225 516.284 107.089 517.416 107.089 518.812C107.089 520.207 108.225 521.339 109.628 521.339Z" fill="#FF900E"/>
<path d="M109.628 538.247C111.03 538.247 112.167 537.116 112.167 535.72C112.167 534.324 111.03 533.192 109.628 533.192C108.225 533.192 107.089 534.324 107.089 535.72C107.089 537.116 108.225 538.247 109.628 538.247Z" fill="#FF900E"/>
<path d="M81.4958 538.201C82.8982 538.201 84.0351 537.07 84.0351 535.674C84.0351 534.278 82.8982 533.147 81.4958 533.147C80.0934 533.147 78.9565 534.278 78.9565 535.674C78.9565 537.07 80.0934 538.201 81.4958 538.201Z" fill="#FF900E"/>
<path d="M95.5542 513.505C96.9566 513.505 98.0935 512.373 98.0935 510.978C98.0935 509.582 96.9566 508.45 95.5542 508.45C94.1518 508.45 93.0149 509.582 93.0149 510.978C93.0149 512.373 94.1518 513.505 95.5542 513.505Z" fill="#FF900E"/>
<path d="M123.709 513.505C125.112 513.505 126.249 512.373 126.249 510.978C126.249 509.582 125.112 508.45 123.709 508.45C122.307 508.45 121.17 509.582 121.17 510.978C121.17 512.373 122.307 513.505 123.709 513.505Z" fill="#FF900E"/>
<path d="M109.628 489.406C111.03 489.406 112.167 488.274 112.167 486.878C112.167 485.483 111.03 484.351 109.628 484.351C108.225 484.351 107.089 485.483 107.089 486.878C107.089 488.274 108.225 489.406 109.628 489.406Z" fill="#FF900E"/>
<path d="M123.709 497.492C125.112 497.492 126.249 496.361 126.249 494.965C126.249 493.569 125.112 492.438 123.709 492.438C122.307 492.438 121.17 493.569 121.17 494.965C121.17 496.361 122.307 497.492 123.709 497.492Z" fill="#FF900E"/>
<path d="M96.3288 552.153H72.4949V575.987H96.3288V552.153Z" fill="#FF900E"/>
<path d="M84.4118 575.987L72.4949 564.059L84.4118 552.153L96.3288 564.059L84.4118 575.987Z" fill="#03715B"/>
<path d="M121.156 552.153H96.3289V575.987H121.156V552.153Z" fill="#03715B"/>
<path d="M108.742 575.987L96.3289 564.059L108.742 552.153L121.156 564.059L108.742 575.987Z" fill="#F3DEC5"/>
<path d="M144.99 552.153H121.156V575.987H144.99V552.153Z" fill="#FF900E"/>
<path d="M133.073 575.987L121.156 564.059L133.073 552.153L144.99 564.059L133.073 575.987Z" fill="#03715B"/>
<path d="M144.99 575.987H130.094V588.897H144.99V575.987Z" fill="#FFD817"/>
<path d="M144.99 581.946C144.99 585.791 141.648 588.897 137.542 588.897C133.412 588.897 130.094 585.791 130.094 581.946H144.99Z" fill="#513B1F"/>
<path d="M86.398 575.987H72.4949V588.897H86.398V575.987Z" fill="#FFD817"/>
<path d="M86.398 581.946C86.398 585.791 83.301 588.897 79.4464 588.897C75.5919 588.897 72.4949 585.791 72.4949 581.946H86.398Z" fill="#513B1F"/>
<path d="M86.3977 588.897H101.294V575.987H86.3977V588.897Z" fill="#FFD817"/>
<path d="M86.3977 581.946C86.3977 578.662 89.7316 575.987 93.8458 575.987C97.96 575.987 101.294 578.662 101.294 581.946H86.3977Z" fill="#513B1F"/>
<path d="M115.199 575.988H101.296V588.897H115.199V575.988Z" fill="#FFD817"/>
<path d="M115.199 581.948C115.199 585.778 112.08 588.9 108.247 588.9C104.393 588.9 101.296 585.802 101.296 581.948H115.199Z" fill="#513B1F"/>
<path d="M115.196 588.897H130.092V575.968H115.196V588.897Z" fill="#FFD817"/>
<path d="M115.196 581.946C115.196 578.655 118.538 575.987 122.644 575.987C126.75 575.987 130.092 578.655 130.092 581.946H115.196Z" fill="#513B1F"/>
</svg>
